<svg class="svg-icon" style="width: 1em; height: 1em;vertical-align: middle;fill: currentColor;overflow: hidden;" viewBox="0 0 1024 1024" version="1.1" xmlns="http://www.w3.org/2000/svg"><path d="M627.6 791.2h-247V750c0-34.7-16.2-68-43.3-89.1-66.7-51.9-105-130.1-105.2-214.5-0.3-147.1 119-269.7 266-273.2 153.2-3.7 279.2 120 279.2 272.5 0 84.3-38.1 162.5-104.5 214.6-28 21.9-44 54.6-44 89.7l-1.2 41.2z m-236.5-10.4h226.4l0.9-30.9c0-38.1 17.5-73.8 48-97.7 63.9-50.1 100.5-125.3 100.5-206.3 0-146.7-120.9-265.5-268.5-262.1-141.4 3.3-256.1 121.1-255.8 262.6 0.2 81.1 37.1 156.3 101.2 206.2 29.6 23.1 47.3 59.5 47.3 97.4v30.8z" fill="#495460" /><path d="M504.7 195.9c-2 0-4 0-6.1 0.1-134.8 3.2-244.2 115.5-243.9 250.5 0.1 77.3 35.3 149 96.4 196.6 32.6 25.4 52.1 65.4 52.1 107v18.5h202.9V750c0-42.1 19.2-81.2 52.7-107.5 60.9-47.8 95.8-119.5 95.8-196.7 0.1-137.8-112-249.9-249.9-249.9z m-0.3 415.1c-92.5 0-167.5-75-167.5-167.5S411.9 276 504.4 276s167.5 75 167.5 167.5S596.9 611 504.4 611z" fill="#FDDA43" /><path d="M386.4 816.3h236.2v10.5H386.4z" fill="#495460" /><path d="M550.7 902.4h-89c-22.3 0-40.4-18.1-40.4-40.4h169.9c-0.1 22.3-18.2 40.4-40.5 40.4z" fill="#F09069" /><path d="M579.4 867.2H429c-26.7 0-48.4-21.7-48.4-48.4v-38h247.1v38c0.1 26.7-21.6 48.4-48.3 48.4z m-188.3-76v27.6c0 20.9 17 37.9 37.9 37.9h150.4c20.9 0 37.9-17 37.9-37.9v-27.6H391.1z" fill="#495460" /><path d="M560.5 791.2H449V476.1h111.6v315.1z m-101.1-10.4H550V486.6h-90.6v294.2z" fill="#495460" /><path d="M562.4 486.6H446.9L507 311.8l55.4 174.8z m-100.9-10.5h86.6l-41.6-131-45 131z" fill="#495460" /><path d="M532.2 391.2h-52.5l27.3-79.4 25.2 79.4z m-37.9-10.4h23.6l-11.3-35.6-12.3 35.6zM499.5 481.3H510V786h-10.5z" fill="#495460" /><path d="M302.2 724.3l-35.8-14 15.3-35.2-3.2-3.1-9.7-9.7-35.2 15.3-14.1-35.8h-15l-14.1 35.8-35.2-15.3-9.8 9.8-0.8 0.8 15.3 35.2-35.7 14.1v15l35.7 14.1-15.3 35.2 10.6 10.6 2.2 2.2 35.2-15.3 14.1 35.8h15l14.1-35.8 35.2 15.3 10.6-10.6-15.3-35.2 35.8-14v-15.2z m-88.8 36.5c-6.4 0-12.3-1.9-17.2-5.3a30.56 30.56 0 0 1-13.5-25.4c0-17 13.7-30.7 30.7-30.7 10.4 0 19.6 5.2 25.1 13.1 3.5 5 5.5 11 5.5 17.6 0 17-13.7 30.7-30.6 30.7z" fill="#7ECBE1" /><path d="M225.4 824.8h-22.1l-13.4-34-33.5 14.6-17.9-17.9 14.6-33.5-34-13.4v-22.1l34-13.4-14.6-33.6 3.4-3.3 12.2-12.2 33.5 14.6 13.4-34h22.1l13.4 34L270 656l17.9 17.8-14.6 33.6 34 13.4v22.1l-34 13.4 14.6 33.5-15.6 15.6-33.5-14.6-13.4 34z m-15-10.4h7.8l14.8-37.5 36.9 16.1 5.6-5.6-16.1-36.9 37.5-14.7v-7.9l-37.5-14.7 16.1-36.9-7.8-7.8-36.9 16.1L216 647h-7.8l-14.8 37.5-36.9-16.1-5.5 5.6 16.1 36.9-37.5 14.7v7.8l37.5 14.8-16.1 37 7.8 7.8 36.9-16.1 14.7 37.5z m3-48.4c-7.2 0-14.2-2.1-20.1-6.2-9.9-6.7-15.8-17.8-15.8-29.7 0-19.8 16.1-35.9 35.9-35.9 11.7 0 22.7 5.7 29.4 15.3 4.2 6 6.5 13.1 6.5 20.6 0 19.8-16.1 35.9-35.9 35.9z m0-61.3c-14 0-25.5 11.4-25.5 25.5 0 8.5 4.2 16.3 11.2 21.1 4.2 2.9 9.1 4.4 14.3 4.4 14 0 25.5-11.4 25.5-25.5 0-5.3-1.6-10.3-4.6-14.6-4.9-6.9-12.7-10.9-20.9-10.9zM753.9 959.5h-9.6V949h10.3l0.3 10.5h-1z m-20.1 0h-10.5V949h10.5v10.5z m-20.9 0h-10.5V949h10.5v10.5z m-20.9 0h-10.5V949H692v10.5z m-20.9 0h-10.5V949h10.5v10.5z m-20.9 0h-10.5V949h10.5v10.5z m-20.9 0h-10.5V949h10.5v10.5z m-21 0h-10.5V949h10.5v10.5z m-20.9 0H577V949h10.5v10.5z m-20.9 0H556V949h10.5v10.5z m-20.9 0h-10.5V949h10.5v10.5z m-20.9 0h-10.5V949h10.5v10.5z m-21 0h-10.5V949h10.5v10.5z m-20.9 0h-10.5V949h10.5v10.5z m-20.9 0h-10.5V949h10.5v10.5z m-20.9 0h-10.5V949H441v10.5z m-20.9 0h-10.5V949h10.5v10.5z m-21 0h-10.5V949h10.5v10.5z m-20.9 0h-10.5V949h10.5v10.5z m-20.9 0h-10.5V949h10.5v10.5z m-20.9 0h-10.5V949h10.5v10.5z m-20.9 0H305V949h10.5v10.5z m-20.9 0h-10.5V949h10.5v10.5z m-21 0h-10.5V949h10.5v10.5z m-20.9 0h-2c-3.2 0-6.4-0.4-9.6-1.1l2.3-10.2c2.3 0.6 4.8 0.8 7.2 0.8h2v10.5z m513.9-1.9l-3.1-10c2.9-0.9 5.6-2.2 8.1-3.8l5.8 8.7c-3.4 2.2-7 3.9-10.8 5.1z m-536.5-3.4c-3.5-1.9-6.7-4.3-9.5-7.2l7.4-7.4c2.1 2.1 4.5 3.9 7.2 5.4l-5.1 9.2z m556.1-9.6l-8-6.8c2-2.3 3.6-4.8 4.8-7.5l9.5 4.3c-1.5 3.6-3.7 7-6.3 10z m-572.8-7.1c-1.9-3.5-3.4-7.2-4.2-11.1l10.2-2.3c0.7 2.9 1.7 5.7 3.2 8.4l-9.2 5zM796 923.2l-10.4-1.5c0.2-1.6 0.4-3.2 0.4-4.8V912h10.5v4.9c0 2.1-0.2 4.2-0.5 6.3z m-577.4-8.3h-10.5v-10.5h10.5v10.5z m577.9-13.4H786v-10.4h10.5v10.4z m-577.9-7.6h-10.5v-10.5h10.5v10.5z m577.9-13.3H786v-10.5h10.5v10.5zM218.6 873h-10.5v-10.5h10.5V873z m577.9-13.3H786v-10.5h10.5v10.5zM868.1 811.7H700.4c-20.2 0-36.7-16.5-36.7-36.7 0-14.5 8.4-27.4 21.3-33.3-0.4-2.5-0.5-5-0.5-7.4 0-30 24.4-54.4 54.4-54.4 15.3 0 29.9 6.5 40.1 17.8 10.2-11.2 24.8-17.8 40.1-17.8 30 0 54.4 24.4 54.4 54.4 0 1.5-0.1 2.9-0.2 4.4 17.9 2.5 31.7 17.8 31.7 36.4-0.1 20.1-16.6 36.6-36.9 36.6zM738.8 690.3c-24.2 0-43.9 19.7-43.9 43.9 0 3.2 0.4 6.4 1.1 9.6l1.1 4.7-4.6 1.4c-11 3.5-18.3 13.5-18.3 25 0 14.5 11.8 26.3 26.3 26.3h167.8c14.5 0 26.3-11.8 26.3-26.3s-11.8-26.3-26.3-26.3h-0.8l-6.5 0.2 1.2-6.4c0.5-2.8 0.8-5.6 0.8-8.3 0-24.2-19.7-43.9-43.9-43.9-14.2 0-27.6 7-35.9 18.6l-4.3 6-4.3-6c-8.2-11.6-21.6-18.5-35.8-18.5z" fill="#495460" /><path d="M700.4 789c-7.8 0-14.1-6.3-14.1-14.1 0-6.2 3.9-11.5 9.8-13.4l15.2-4.8-3.5-15.6c-0.5-2.3-0.8-4.7-0.8-6.9 0-17.5 14.2-31.7 31.7-31.7 10.2 0 19.9 5 25.9 13.5l14.2 20.1L793 716c6-8.4 15.6-13.5 25.9-13.5 17.5 0 31.7 14.2 31.7 31.7 0 2-0.2 4-0.6 6l-4.1 21.3 21.7-0.6h0.8c7.6 0.2 13.7 6.4 13.7 14.1 0 7.8-6.3 14.1-14.1 14.1H700.4z" fill="#F09069" /><path d="M735.4 760.3h-10.5c0-15.7 12.8-28.4 28.4-28.4v10.5c-9.9 0-17.9 8-17.9 17.9zM810.4 754v-10.5c9.9 0 18-8.1 18-18h10.5c-0.1 15.7-12.8 28.5-28.5 28.5zM795.8 783.5h-10.5c0-9.9-8.1-18-18-18V755c15.8 0.1 28.5 12.9 28.5 28.5zM499.5 64.5H510v84h-10.5zM594.8 159.6l-10-3 9.4-31.5 10 3zM661.66 189.423l47.996-77.669 8.932 5.52-47.996 77.669z" fill="#495460" /><path d="M727.758 235.9l28.394-23.253 6.653 8.124-28.395 23.253z" fill="#495460" /><path d="M409.2 159.6l-9.4-31.5 10-3 9.4 31.5z" fill="#495460" /><path d="M285.488 117.285l8.929-5.524 48.033 77.642-8.93 5.524z" fill="#495460" /><path d="M241.325 220.76l6.65-8.127 28.401 23.242-6.65 8.126z" fill="#495460" /></svg>